<svg xmlns="http://www.w3.org/2000/svg" version="1.1" xmlns:xlink="http://www.w3.org/1999/xlink" xmlns:svgjs="http://svgjs.dev/svgjs" width="1500" height="356" viewBox="0 0 1500 356"><g transform="matrix(1,0,0,1,-0.9090909090909918,-0.36575852461774616)"><svg viewBox="0 0 396 94" data-background-color="#ffffff" preserveAspectRatio="xMidYMid meet" height="356" width="1500" xmlns="http://www.w3.org/2000/svg" xmlns:xlink="http://www.w3.org/1999/xlink"><g id="tight-bounds" transform="matrix(1,0,0,1,0.2400000000000091,0.09657668908445771)"><svg viewBox="0 0 395.52 93.8068466218311" height="93.8068466218311" width="395.52"><g><svg viewBox="0 0 566.9617991010668 134.4682911830279" height="93.8068466218311" width="395.52"><g transform="matrix(1,0,0,1,171.44179910106686,28.079902976806224)"><svg viewBox="0 0 395.52 78.30848522941545" height="78.30848522941545" width="395.52"><g id="textblocktransform"><svg viewBox="0 0 395.52 78.30848522941545" height="78.30848522941545" width="395.52" id="textblock"><g><svg viewBox="0 0 395.52 78.30848522941545" height="78.30848522941545" width="395.52"><g transform="matrix(1,0,0,1,0,0)"><svg width="395.52" viewBox="1.67 -33.33 219.07000000000002 43.75" height="78.30848522941545" data-palette-color="#6230a3"><g class="wordmark-text-0" data-fill-palette-color="primary" id="text-0"><path d="M10-27.71L1.67-27.71 1.67-31.25 22.29-31.25 22.29-27.71 13.96-27.71 13.96 0 10 0 10-27.71ZM36.8 0.42L36.8 0.42Q33.78 0.42 31.28-1.04 28.78-2.5 27.31-4.97 25.83-7.43 25.83-10.42L25.83-10.42Q25.83-13.44 27.31-15.89 28.78-18.33 31.28-19.79 33.78-21.25 36.8-21.25L36.8-21.25Q39.86-21.25 42.34-19.79 44.82-18.33 46.3-15.89 47.78-13.44 47.78-10.42L47.78-10.42Q47.78-7.43 46.3-4.97 44.82-2.5 42.34-1.04 39.86 0.42 36.8 0.42ZM36.8-3.13L36.8-3.13Q38.82-3.13 40.45-4.11 42.08-5.1 43.05-6.75 44.03-8.4 44.03-10.42L44.03-10.42Q44.03-12.43 43.05-14.08 42.08-15.73 40.45-16.72 38.82-17.71 36.8-17.71L36.8-17.71Q34.79-17.71 33.16-16.72 31.53-15.73 30.55-14.08 29.58-12.43 29.58-10.42L29.58-10.42Q29.58-8.4 30.55-6.75 31.53-5.1 33.16-4.11 34.79-3.13 36.8-3.13ZM60.93 0.42L60.93 0.42Q58.75 0.42 56.84-0.68 54.93-1.77 53.75-3.85 52.56-5.94 52.56-8.85L52.56-8.85 52.56-20.83 56.31-20.83 56.31-9.38Q56.31-6.91 57.79-5.02 59.27-3.13 61.94-3.13L61.94-3.13Q64.13-3.13 65.85-4.7 67.56-6.28 67.56-9.27L67.56-9.27 67.56-20.83 71.31-20.83 71.31 0 67.84 0 67.84-3.37Q66.7-1.53 64.87-0.56 63.05 0.42 60.93 0.42ZM87.56 0.42L87.56 0.42Q84.51 0.42 82.01-1.04 79.51-2.5 78.01-4.97 76.52-7.43 76.52-10.42L76.52-10.42Q76.52-13.4 78.01-15.87 79.51-18.33 82.01-19.79 84.51-21.25 87.56-21.25L87.56-21.25Q89.82-21.25 91.8-20.45 93.78-19.65 95.27-18.33L95.27-18.33 94.12-13.61Q93.26-15.35 91.5-16.53 89.75-17.71 87.53-17.71L87.53-17.71Q85.51-17.71 83.86-16.72 82.21-15.73 81.24-14.08 80.27-12.43 80.27-10.42L80.27-10.42Q80.27-8.44 81.24-6.77 82.21-5.1 83.86-4.11 85.51-3.13 87.53-3.13L87.53-3.13Q89.75-3.13 91.5-4.27 93.26-5.42 94.12-7.22L94.12-7.22 95.27-2.5Q93.78-1.18 91.8-0.38 89.82 0.42 87.56 0.42ZM103.6 0L99.85 0 99.85-33.33 103.6-33.33 103.6-17.88Q104.78-19.51 106.52-20.38 108.25-21.25 110.23-21.25L110.23-21.25Q112.46-21.25 114.35-20.16 116.24-19.06 117.42-17 118.6-14.93 118.6-11.98L118.6-11.98 118.6 0 114.85 0 114.85-11.46Q114.85-13.92 113.38-15.82 111.9-17.71 109.23-17.71L109.23-17.71Q107.04-17.71 105.32-16.13 103.6-14.55 103.6-11.56L103.6-11.56 103.6 0ZM135.4 0.42L135.4 0.42Q132.45 0.42 130.16-0.89 127.87-2.19 126.57-4.5 125.27-6.81 125.27-9.83L125.27-9.83 125.27-31.25 129.22-31.25 129.22-9.97Q129.22-6.88 130.99-5 132.77-3.13 135.47-3.13L135.47-3.13Q138.15-3.13 139.94-4.98 141.72-6.84 141.72-9.83L141.72-9.83 141.72-31.25 145.54-31.25 145.54-9.97Q145.54-6.91 144.24-4.57 142.94-2.22 140.66-0.9 138.39 0.42 135.4 0.42ZM156.37 10.42L152.62 10.42 152.62-20.83 156.1-20.83 156.1-18.09Q157.52-19.51 159.39-20.31 161.27-21.11 163.42-21.11L163.42-21.11Q166.3-21.11 168.65-19.67 170.99-18.23 172.4-15.8 173.8-13.37 173.8-10.42L173.8-10.42Q173.8-7.47 172.4-5.03 170.99-2.6 168.65-1.16 166.3 0.28 163.42 0.28L163.42 0.28Q161.37 0.28 159.57-0.45 157.76-1.18 156.37-2.47L156.37-2.47 156.37 10.42ZM162.94-3.13L162.94-3.13Q164.92-3.13 166.53-4.11 168.14-5.1 169.1-6.75 170.05-8.4 170.05-10.42L170.05-10.42Q170.05-12.43 169.1-14.08 168.14-15.73 166.53-16.72 164.92-17.71 162.94-17.71L162.94-17.71Q160.96-17.71 159.34-16.72 157.73-15.73 156.77-14.08 155.82-12.43 155.82-10.42L155.82-10.42Q155.82-8.4 156.77-6.75 157.73-5.1 159.34-4.11 160.96-3.13 162.94-3.13Z" fill="#6230a3" data-fill-palette-color="primary"></path><path d="M188.83 0L184.84 0 198.07-32.29 198.14-32.29 211.37 0 207.17 0 203.49-9.27 192.55-9.27 188.83 0ZM196.33-18.75L193.87-12.57 202.17-12.57 199.7-18.75Q199.25-19.93 198.83-21.08 198.42-22.22 198-23.82L198-23.82Q197.58-22.22 197.2-21.09 196.82-19.97 196.33-18.75L196.33-18.75ZM220.74 0L216.78 0 216.78-31.25 220.74-31.25 220.74 0Z" fill="#fec200" data-fill-palette-color="accent"></path></g></svg></g></svg></g></svg></g></svg></g><g><svg viewBox="0 0 134.4682911830279 134.4682911830279" height="134.4682911830279" width="134.4682911830279"><g><svg></svg></g><g id="icon-0"><svg viewBox="0 0 134.4682911830279 134.4682911830279" height="134.4682911830279" width="134.4682911830279"><g><path d="M0 67.234c0-37.132 30.102-67.234 67.234-67.234 37.132 0 67.234 30.102 67.234 67.234 0 37.132-30.102 67.234-67.234 67.234-37.132 0-67.234-30.102-67.234-67.234zM67.234 127.406c33.232 0 60.172-26.94 60.172-60.172 0-33.232-26.94-60.172-60.172-60.172-33.232 0-60.172 26.94-60.172 60.172 0 33.232 26.94 60.172 60.172 60.172z" data-fill-palette-color="accent" fill="#fec200" stroke="transparent"></path></g><g transform="matrix(1,0,0,1,30.9081775863963,30.9081775863963)"><svg viewBox="0 0 72.6519360102353 72.6519360102353" height="72.6519360102353" width="72.6519360102353"><g><svg xmlns="http://www.w3.org/2000/svg" xmlns:xlink="http://www.w3.org/1999/xlink" version="1.1" x="0" y="0" viewBox="0 0 60 60" style="enable-background:new 0 0 60 60;" xml:space="preserve" height="72.6519360102353" width="72.6519360102353" class="icon-cg-0" data-fill-palette-color="accent" id="cg-0"><g fill="#fec200" data-fill-palette-color="accent"><path d="M36 42c-4.411 0-8-3.589-8-8s3.589-8 8-8c0.552 0 1 0.448 1 1s-0.448 1-1 1c-3.308 0-6 2.691-6 6s2.692 6 6 6c0.552 0 1 0.448 1 1S36.552 42 36 42z" fill="#fec200" data-fill-palette-color="accent"></path><path d="M24.101 31.95c-0.256 0-0.512-0.098-0.707-0.293-1.511-1.511-2.343-3.52-2.343-5.657s0.832-4.146 2.343-5.657c2.056-2.057 5.072-2.836 7.869-2.033 0.531 0.152 0.838 0.707 0.685 1.237-0.152 0.531-0.705 0.838-1.237 0.686-2.099-0.606-4.361-0.02-5.903 1.524-1.133 1.133-1.757 2.64-1.757 4.243s0.624 3.109 1.757 4.243c0.391 0.391 0.391 1.023 0 1.414C24.613 31.852 24.356 31.95 24.101 31.95z" fill="#fec200" data-fill-palette-color="accent"></path><path d="M48 45c-2.137 0-4.146-0.832-5.657-2.343C40.832 41.146 40 39.137 40 37s0.832-4.146 2.343-5.657c0.391-0.391 1.024-0.391 1.414 0 0.391 0.391 0.391 1.023 0 1.414C42.624 33.891 42 35.397 42 37s0.624 3.109 1.757 4.243C44.891 42.376 46.397 43 48 43s3.109-0.624 4.243-1.757c0.39-0.391 1.023-0.391 1.414 0s0.391 1.023 0 1.414C52.146 44.168 50.137 45 48 45z" fill="#fec200" data-fill-palette-color="accent"></path><path d="M51.751 32.856c-0.087 0-0.176-0.012-0.265-0.036-0.533-0.146-0.846-0.696-0.7-1.229 0.569-2.078-0.022-4.313-1.544-5.834C48.109 24.624 46.603 24 45 24s-3.109 0.624-4.243 1.757c-0.39 0.391-1.023 0.391-1.414 0s-0.391-1.023 0-1.414C40.854 22.832 42.863 22 45 22s4.146 0.832 5.657 2.343c2.028 2.028 2.817 5.008 2.058 7.777C52.594 32.564 52.191 32.856 51.751 32.856z" fill="#fec200" data-fill-palette-color="accent"></path><path d="M45.387 20.04c-0.256 0-0.512-0.098-0.707-0.293-1.133-1.133-2.64-1.757-4.243-1.757s-3.109 0.624-4.243 1.757c-0.39 0.391-1.023 0.391-1.414 0s-0.391-1.023 0-1.414c1.511-1.511 3.52-2.343 5.657-2.343s4.146 0.832 5.657 2.343c0.391 0.391 0.391 1.023 0 1.414C45.898 19.942 45.643 20.04 45.387 20.04z" fill="#fec200" data-fill-palette-color="accent"></path><path d="M18.899 40c-0.256 0-0.512-0.098-0.707-0.293-0.391-0.391-0.391-1.023 0-1.414 1.133-1.133 1.757-2.64 1.757-4.243 0-1.603-0.624-3.109-1.757-4.243-1.133-1.133-2.64-1.757-4.243-1.757s-3.109 0.624-4.243 1.757c-0.39 0.391-1.023 0.391-1.414 0s-0.391-1.023 0-1.414c1.511-1.511 3.52-2.343 5.657-2.343s4.146 0.832 5.657 2.343c1.511 1.511 2.343 3.52 2.343 5.657 0 2.137-0.832 4.146-2.343 5.657C19.411 39.902 19.155 40 18.899 40z" fill="#fec200" data-fill-palette-color="accent"></path><path d="M40.5 56c-4.726 0-8.945-2.889-10.678-7.249-2.1-0.464-3.964-1.578-5.368-3.201C22.795 46.501 20.927 47 19 47c-4.62 0-8.673-2.824-10.286-7.093C3.776 39.271 0 35.044 0 30c0-3.613 1.909-6.88 5.022-8.664C5.368 15.583 10.171 11 16 11c2.467 0 4.801 0.805 6.716 2.293C24.212 9.566 27.888 7 32 7c3.259 0 6.245 1.551 8.124 4.185 5.113-0.994 10.022 2.189 11.45 6.946C56.353 18.893 60 23.097 60 28c0 2.684-1.063 5.215-2.947 7.086C58.314 36.799 59 38.864 59 41c0 5.157-3.905 9.425-8.983 9.938C47.869 54.117 44.349 56 40.5 56zM24.68 43.225c0.312 0 0.619 0.146 0.814 0.418 1.253 1.751 3.109 2.904 5.229 3.245 0.366 0.059 0.669 0.315 0.788 0.666C32.821 51.409 36.433 54 40.5 54c3.321 0 6.347-1.699 8.093-4.545 0.173-0.282 0.473-0.459 0.803-0.476C53.66 48.77 57 45.265 57 41c0-1.974-0.734-3.874-2.065-5.35-0.184-0.204-0.276-0.473-0.255-0.747 0.021-0.273 0.153-0.526 0.366-0.699C56.923 32.676 58 30.415 58 28c0-4.114-3.209-7.612-7.306-7.964-0.435-0.037-0.796-0.353-0.89-0.779-0.953-4.286-5.353-7.186-9.871-5.977-0.427 0.114-0.88-0.065-1.111-0.444C37.35 10.434 34.801 9 32 9c-3.735 0-7.021 2.647-7.813 6.294-0.079 0.361-0.35 0.649-0.705 0.75-0.355 0.1-0.738-0.004-0.993-0.27C20.771 13.985 18.467 13 16 13c-4.934 0-8.971 4.015-8.997 8.951-0.002 0.377-0.217 0.722-0.555 0.89C3.704 24.205 2 26.948 2 30c0 4.216 3.299 7.718 7.51 7.974 0.415 0.025 0.771 0.304 0.894 0.701C11.58 42.458 15.035 45 19 45c1.834 0 3.602-0.552 5.112-1.598C24.286 43.282 24.484 43.225 24.68 43.225z" fill="#fec200" data-fill-palette-color="accent"></path><path d="M48.019 51.067c-5.865 0-8.73-4.326-8.859-4.525-0.3-0.464-0.166-1.083 0.298-1.382 0.464-0.299 1.081-0.167 1.381 0.295 0.122 0.185 2.857 4.228 8.484 3.53 0.547-0.072 1.047 0.321 1.115 0.869 0.068 0.548-0.321 1.047-0.869 1.115C49.031 51.037 48.514 51.067 48.019 51.067z" fill="#fec200" data-fill-palette-color="accent"></path><path d="M22.688 19.625c-0.013 0-0.026 0-0.039-0.001-0.552-0.021-0.982-0.485-0.961-1.038 0.065-1.704 0.529-3.656 0.549-3.738 0.129-0.537 0.669-0.869 1.205-0.739 0.537 0.128 0.868 0.668 0.74 1.205-0.004 0.018-0.438 1.845-0.495 3.349C23.666 19.202 23.223 19.625 22.688 19.625z" fill="#fec200" data-fill-palette-color="accent"></path><path d="M6.006 22.944c-0.337 0-0.667-0.17-0.855-0.479-0.287-0.47-0.141-1.083 0.328-1.371 0.105-0.065 2.597-1.572 5.679-1.082 0.545 0.087 0.917 0.6 0.83 1.145s-0.6 0.916-1.145 0.831c-2.33-0.372-4.3 0.799-4.319 0.811C6.361 22.897 6.182 22.944 6.006 22.944z" fill="#fec200" data-fill-palette-color="accent"></path><path d="M50.903 22.43c-0.548 0-0.995-0.442-1-0.991-0.009-1.083-0.118-2.296-0.119-2.309-0.05-0.55 0.355-1.036 0.906-1.086 0.552-0.042 1.036 0.355 1.086 0.906 0.005 0.053 0.118 1.309 0.128 2.472 0.005 0.552-0.439 1.004-0.991 1.009C50.908 22.43 50.906 22.43 50.903 22.43z" fill="#fec200" data-fill-palette-color="accent"></path><path d="M24.682 45.225c-0.267 0-0.534-0.106-0.73-0.317-0.377-0.403-0.356-1.036 0.047-1.414 0.828-0.775 2.21-2.375 2.394-3.364 0.101-0.543 0.623-0.903 1.166-0.801 0.543 0.101 0.902 0.623 0.801 1.166-0.362 1.955-2.726 4.21-2.995 4.461C25.171 45.135 24.926 45.225 24.682 45.225z" fill="#fec200" data-fill-palette-color="accent"></path><path d="M34.001 49.033c-0.015 0-0.031 0-0.047-0.001l-3.436-0.158c-0.552-0.025-0.978-0.493-0.953-1.045 0.025-0.551 0.49-0.961 1.045-0.953l3.436 0.158c0.552 0.025 0.978 0.493 0.953 1.045C34.974 48.615 34.532 49.033 34.001 49.033z" fill="#fec200" data-fill-palette-color="accent"></path><path d="M9.445 39.968c-0.449 0-0.856-0.303-0.967-0.758-0.029-0.119-0.277-1.212-0.019-3.038 0.077-0.547 0.583-0.928 1.13-0.851 0.547 0.077 0.927 0.583 0.85 1.13-0.203 1.441-0.019 2.282-0.017 2.291 0.121 0.535-0.21 1.072-0.745 1.198C9.6 39.959 9.522 39.968 9.445 39.968z" fill="#fec200" data-fill-palette-color="accent"></path><path d="M51.47 38.03c-0.413 0-0.8-0.258-0.944-0.67-0.182-0.521 0.092-1.092 0.613-1.274 2.864-1.003 3.867-1.847 3.877-1.855 0.415-0.357 1.045-0.317 1.407 0.094 0.362 0.411 0.33 1.032-0.076 1.399-0.122 0.11-1.286 1.108-4.547 2.25C51.691 38.011 51.579 38.03 51.47 38.03z" fill="#fec200" data-fill-palette-color="accent"></path><path d="M6 58.414L1.586 54 6 49.586 10.414 54 6 58.414zM4.414 54L6 55.586 7.586 54 6 52.414 4.414 54z" fill="#fec200" data-fill-palette-color="accent"></path><path d="M6 52c-0.552 0-1-0.448-1-1v-2c0-0.552 0.448-1 1-1s1 0.448 1 1v2C7 51.552 6.552 52 6 52z" fill="#fec200" data-fill-palette-color="accent"></path><path d="M11 55H9c-0.552 0-1-0.448-1-1s0.448-1 1-1h2c0.552 0 1 0.448 1 1S11.552 55 11 55z" fill="#fec200" data-fill-palette-color="accent"></path><path d="M6 60c-0.552 0-1-0.448-1-1v-2c0-0.552 0.448-1 1-1s1 0.448 1 1v2C7 59.552 6.552 60 6 60z" fill="#fec200" data-fill-palette-color="accent"></path><path d="M3 55H1c-0.552 0-1-0.448-1-1s0.448-1 1-1h2c0.552 0 1 0.448 1 1S3.552 55 3 55z" fill="#fec200" data-fill-palette-color="accent"></path><path d="M54 12c-0.552 0-1-0.448-1-1 0-2.206-1.794-4-4-4-0.552 0-1-0.448-1-1s0.448-1 1-1c2.206 0 4-1.794 4-4 0-0.552 0.448-1 1-1s1 0.448 1 1c0 2.206 1.794 4 4 4 0.552 0 1 0.448 1 1s-0.448 1-1 1c-2.206 0-4 1.794-4 4C55 11.552 54.552 12 54 12zM52.313 6C52.981 6.444 53.556 7.019 54 7.687 54.444 7.019 55.019 6.444 55.687 6 55.019 5.556 54.444 4.981 54 4.313 53.556 4.981 52.981 5.556 52.313 6z" fill="#fec200" data-fill-palette-color="accent"></path></g></svg></g></svg></g></svg></g></svg></g></svg></g><defs></defs></svg><rect width="395.52" height="93.8068466218311" fill="none" stroke="none" visibility="hidden"></rect></g></svg></g></svg>